# xmcd CD database file generated by OrangeCD 5.2
#
# Track frame offsets:
#	150
#	14751
#	33340
#	46486
#	59727
#	74858
#	91827
#	101074
#	121133
#	134120
#	149028
#	165188
#	182638
#	196420
#	210655
#	227442
#	243926
#	259658
#	278361
#
# Disc length: 3880 seconds
#
# Revision: 1
# Processed by: cddbd v1.5.1PL0 Copyright (c) Steve Scherf et al.
# Submitted via: OrangeCD 5.2
#
DISCID=1b0f2613
DTITLE=Various Artist - The Country of Norway
DYEAR=2003
DGENRE=Country
TTITLE0=Ann Tyler  - Come On
TTITLE1=Angela Lidin - Crazy Dead
TTITLE2=Heidi Hauge - En drøm om Nashville
TTITLE3=Rudi Nelson - Dans dans
TTITLE4=Ottar Bighand Johansen - De beste timene
TTITLE5=Bullseye - Fiddlin' Fool
TTITLE6=Teddy Nelson - Ola med sjød'n
TTITLE7=The Boots - Indian Girl
TTITLE8=Arne Benoni - If I Lived To Be A Hundred
TTITLE9=Bullseye - In Case You Haven't Noticed
TTITLE10=Lillian Askeland  - Jeg har aldri vært hos meg
TTITLE11=Rudi Nelson - Langs Norskekysten
TTITLE12=Ann Tyler - 1-2-3
TTITLE13=Angela Lidin - Coat Of Many Colors
TTITLE14=Teddy Nelson - Semi-Truck
TTITLE15=The Boots - Promise Me
TTITLE16=Lillian Askeland and Ottar Bighand Johansen - Hvis jeg savner deg
TTITLE17=Heidi Hauge - Save The Last Dance For Me
TTITLE18=Dottie West and Arne Benoni - As For Me
EXTD=
EXTT0=
EXTT1=
EXTT2=
EXTT3=
EXTT4=
EXTT5=
EXTT6=
EXTT7=
EXTT8=
EXTT9=
EXTT10=
EXTT11=
EXTT12=
EXTT13=
EXTT14=
EXTT15=
EXTT16=
EXTT17=
EXTT18=
PLAYORDER=
